<svg xmlns="http://www.w3.org/2000/svg" viewBox="0 0 1200 360" role="img" aria-labelledby="title desc">
  <title id="title">TaskHub Agent Pulse light landscape logo concept</title>
  <desc id="desc">A wide light TaskHub wordmark with terminal, pulse, and cloud hub icon for product branding.</desc>
  <defs>
    <linearGradient id="iconBg" x1="72" y1="72" x2="288" y2="288" gradientUnits="userSpaceOnUse">
      <stop offset="0" stop-color="#ffffff"/>
      <stop offset="1" stop-color="#e5e7eb"/>
    </linearGradient>
    <linearGradient id="pulse" x1="116" y1="232" x2="242" y2="132" gradientUnits="userSpaceOnUse">
      <stop offset="0" stop-color="#059669"/>
      <stop offset="1" stop-color="#7c3aed"/>
    </linearGradient>
  </defs>
  <rect width="1200" height="360" rx="40" fill="#ffffff"/>
  <rect x="72" y="72" width="216" height="216" rx="48" fill="url(#iconBg)" stroke="#d4d4d8" stroke-width="5"/>
  <rect x="102" y="108" width="156" height="120" rx="22" fill="#ffffff" stroke="#d4d4d8" stroke-width="7"/>
  <path d="M126 142h54M126 172h34M126 202h75" stroke="#d1d5db" stroke-width="12" stroke-linecap="round"/>
  <path d="M126 142h34M126 172h22M126 202h48" stroke="#059669" stroke-width="12" stroke-linecap="round"/>
  <path d="M154 234c19-43 44-58 84-70" fill="none" stroke="url(#pulse)" stroke-width="12" stroke-linecap="round"/>
  <circle cx="154" cy="234" r="17" fill="#059669"/>
  <circle cx="238" cy="164" r="21" fill="#7c3aed"/>
  <path d="M231 164h14M238 157v14" stroke="#f5f3ff" stroke-width="7" stroke-linecap="round"/>
  <path d="M206 108l-7 20h21l-25 46 7-31h-21z" fill="#eab308"/>
  <text x="344" y="176" fill="#111827" font-family="Inter, Segoe UI, Arial, sans-serif" font-size="92" font-weight="800" letter-spacing="0">TaskHub</text>
  <text x="350" y="232" fill="#52525b" font-family="Inter, Segoe UI, Arial, sans-serif" font-size="30" font-weight="500" letter-spacing="0">Run local scheduled tasks from anywhere</text>
  <g transform="translate(955 118)">
    <path d="M36 92h134c23 0 42-18 42-41s-19-41-42-41c-14 0-27 7-35 18-9-16-26-26-45-26-28 0-51 22-51 50v3h-3c-20 0-36 16-36 36 0 1 0 1 0 1z" fill="#ffffff" stroke="#d4d4d8" stroke-width="4"/>
    <path d="M54 68h112" stroke="#7c3aed" stroke-width="10" stroke-linecap="round"/>
    <path d="M54 68h62" stroke="#059669" stroke-width="10" stroke-linecap="round"/>
  </g>
</svg>
